<?xml version="1.0" standalone="no"?><!DOCTYPE svg PUBLIC "-//W3C//DTD SVG 1.1//EN" "http://www.w3.org/Graphics/SVG/1.1/DTD/svg11.dtd"><svg t="1521620874735" class="icon" style="" viewBox="0 0 1024 1024" version="1.1" xmlns="http://www.w3.org/2000/svg" p-id="1052" xmlns:xlink="http://www.w3.org/1999/xlink" width="32" height="32"><defs><style type="text/css"></style></defs><path d="M512 288c-52.992 0-96 43.008-96 96s43.008 96 96 96 96-43.008 96-96-43.008-96-96-96zM512 448c-35.2 0-64-28.8-64-64s28.8-64 64-64 64 28.8 64 64-28.8 64-64 64zM512 64.8c-176.8 0-320 143.2-320 320 0 68 23.2 129.792 57.6 182.816 69.216 106.4 262.4 391.616 262.4 391.616s193.216-285.216 262.4-391.392c34.4-52.992 57.6-114.816 57.6-182.816 0-176.8-143.2-320.192-320-320.192zM747.616 550.208c-52.992 81.408-180.192 270.016-235.616 351.808-55.392-82.016-182.592-270.4-235.616-351.808-34.816-53.6-52.416-109.184-52.416-165.408 0-76.992 30.016-149.184 84.416-203.584s126.816-84.416 203.616-84.416c76.992 0 149.216 30.016 203.616 84.416s84.384 126.784 84.384 203.584c0 56.384-17.6 112-52.384 165.408z" p-id="1053" fill="#8a8a8a"></path></svg>