<?xml version="1.0" standalone="no"?><!DOCTYPE svg PUBLIC "-//W3C//DTD SVG 1.1//EN" "http://www.w3.org/Graphics/SVG/1.1/DTD/svg11.dtd"><svg t="1521970536653" class="icon" style="" viewBox="0 0 1024 1024" version="1.1" xmlns="http://www.w3.org/2000/svg" p-id="2682" xmlns:xlink="http://www.w3.org/1999/xlink" width="150" height="150"><defs><style type="text/css"></style></defs><path d="M864 128l-64 0 0 64 32 0 0 512L576 704l0 256L192 960 192 192l32 0L224 128 160 128c-17.602 0-32 14.4-32 32l0 832c0 17.6 14.398 32 32 32l504 0 232-232L896 160C896 142.4 881.6 128 864 128zM640 960l0-192 192 0L640 960zM768 128l-128 0L640 64c0-35.2-28.8-64-64-64l-128 0c-35.204 0-64 28.8-64 64l0 64-128 0 0 128 512 0L768 128zM576 128l-128 0L448 64.114c0.034-0.038 0.072-0.078 0.114-0.114l127.768 0c0.042 0.036 0.082 0.076 0.118 0.114L576 128z" p-id="2683" fill="#8a8a8a"></path></svg>