<?xml version="1.0" standalone="no"?><!DOCTYPE svg PUBLIC "-//W3C//DTD SVG 1.1//EN" "http://www.w3.org/Graphics/SVG/1.1/DTD/svg11.dtd"><svg t="1521970681366" class="icon" style="" viewBox="0 0 1024 1024" version="1.1" xmlns="http://www.w3.org/2000/svg" p-id="4202" xmlns:xlink="http://www.w3.org/1999/xlink" width="150" height="150"><defs><style type="text/css"></style></defs><path d="M741.637 576.991h-173.311v-77.99h173.311c30.331 0 51.993-21.663 51.993-47.661 0-25.995-25.995-47.661-51.993-47.661h-86.657l86.657-155.98c12.997-17.329 0-43.327-25.998-56.325-30.329-8.665-60.658-4.333-69.324 12.998l-112.653 199.309h-30.331c0 0 0-4.333-4.332-4.333l-103.985-190.64c-12.998-17.334-43.327-17.334-69.326-4.335-25.995 12.999-34.662 34.662-25.995 51.997l86.657 147.313h-103.988c-25.995 0-51.993 21.665-51.993 47.661 0 25.997 25.998 47.661 51.993 47.661h173.311v77.99h-173.311c-25.995 0-51.993 17.333-51.993 43.327 0 25.997 25.998 47.661 51.993 47.661h173.311v121.317c0 25.998 25.998 47.661 51.993 47.661v0c30.331 0 51.997-21.662 51.997-47.661v-121.317h173.311c30.327 0 51.993-21.663 51.993-47.661 8.665-25.996-17.329-43.328-43.327-43.328v0 0zM741.637 576.991z" p-id="4203" fill="#8a8a8a"></path></svg>