<?xml version="1.0" standalone="no"?><!DOCTYPE svg PUBLIC "-//W3C//DTD SVG 1.1//EN" "http://www.w3.org/Graphics/SVG/1.1/DTD/svg11.dtd"><svg t="1521970607463" class="icon" style="" viewBox="0 0 1024 1024" version="1.1" xmlns="http://www.w3.org/2000/svg" p-id="3273" xmlns:xlink="http://www.w3.org/1999/xlink" width="150" height="150"><defs><style type="text/css"></style></defs><path d="M549.425378 722.738655l210.129788-210.17379c10.836813-10.832719 25.230638-16.788361 40.552601-16.788361 15.325034 0 29.703509 5.955642 40.548508 16.788361l19.094894 19.10308c22.344914 22.353101 22.344914 58.748009 0 81.101109L649.601938 822.958194l-160.603815 59.795874L549.425378 722.738655 549.425378 722.738655 549.425378 722.738655zM546.799574 824.964898l84.294848-31.398104 2.26253-2.282996-52.557006-52.544727-2.302439 2.326998L546.799574 824.964898 546.799574 824.964898 546.799574 824.964898zM657.172357 767.476579l138.078799-138.103358-52.560076-52.572356L604.628654 714.915479 657.172357 767.476579 657.172357 767.476579 657.172357 767.476579zM819.062468 605.553723l16.980743-16.96437c9.222035-9.237385 9.222035-24.251334 0.016373-33.481556l-19.079544-19.094894c-4.485151-4.460592-10.42442-6.919597-16.756639-6.919597-6.319939 0-12.275581 2.459005-16.736173 6.919597l-16.960277 16.98893L819.062468 605.553723 819.062468 605.553723 819.062468 605.553723zM876.499621 862.120123c-0.039909-1.415232-0.23536-2.845815-0.723477-4.976338l-1.034563-7.611352c-8.06263-58.936297-27.857465-113.710808-57.109696-161.403017l-30.04734 29.188786c23.51967 40.196491 39.892569 85.549421 47.02399 133.76147l0.759293 5.140067 0.847298 0.092098 0 6.284123c0 11.107989 9.05012 20.158109 20.162202 20.158109 11.000542 0 19.950378-8.838296 20.13048-20.338211L876.499621 862.120123 876.499621 862.120123 876.499621 862.120123zM681.515788 556.179199c-7.650237-4.296863-15.425318-8.394181-23.412223-12.155854l-8.786107-4.129041 7.359618-6.315846c49.649793-42.574654 78.138638-104.276948 78.138638-169.292708 0-122.993219-100.072183-223.040842-223.044936-223.040842-122.992195 0-223.056192 100.047624-223.056192 223.040842 0 65.015759 28.480658 126.718053 78.130452 169.292708l7.370875 6.315846-8.769734 4.129041c-116.988458 55.031361-197.973934 169.253822-216.649272 305.509089l-1.306762 9.593496 0 3.470031c0 11.107989 9.058306 20.158109 20.154016 20.158109 11.124362 0 20.190855-9.05012 20.190855-20.13048l-0.280386-2.38635 1.358951-9.157567c19.647479-132.658346 108.511389-244.11481 226.418776-283.96747l2.354628-0.807389 2.26253 1.027399c29.172413 13.263072 60.058864 13.066597 91.821265 13.066597 31.747051 0 62.637596 0.196475 91.801822-13.066597l2.27481-1.027399 2.350534 0.807389c15.844873 5.347798 31.098275 12.0832 45.784766 19.898189L681.515788 556.179199 681.515788 556.179199 681.515788 556.179199zM603.50097 527.72617c-15.557324 8.630564-35.515888 11.716856-52.983725 15.502066-12.955056 2.805906-25.986861 4.204765-38.746466 4.204765-12.779048 0-25.809829-1.39886-38.733163-4.204765-17.440208-3.761674-34.20094-10.077519-49.782823-18.73162-58.375525-32.357965-94.631264-93.748151-94.631264-160.210865 0-100.975762 82.152045-183.140087 183.14725-183.140087 100.975762 0 183.131901 82.164325 183.131901 183.140087C694.898587 430.748465 661.877519 495.356948 603.50097 527.72617L603.50097 527.72617 603.50097 527.72617zM603.50097 527.72617" p-id="3274" fill="#8a8a8a"></path></svg>