<?xml version="1.0" standalone="no"?><!DOCTYPE svg PUBLIC "-//W3C//DTD SVG 1.1//EN" "http://www.w3.org/Graphics/SVG/1.1/DTD/svg11.dtd"><svg t="1521621033786" class="icon" style="" viewBox="0 0 1024 1024" version="1.1" xmlns="http://www.w3.org/2000/svg" p-id="2116" xmlns:xlink="http://www.w3.org/1999/xlink" width="32" height="32"><defs><style type="text/css"></style></defs><path d="M745.027799 907.260206l2.146896 0 1.707898-1.154289 0 0.022513c23.802102-15.876596 80.995709-55.70572 120.558773-97.195669 22.396079-23.468504 38.861076-46.866401 38.861076-64.934918 0-27.206642-32.259728-72.64246-73.197092-110.649076-37.925774-35.237549-82.565461-63.113433-114.999151-63.113433-6.553253 0-12.610202 1.108241-18.011212 3.208065l0.01228 0.022513c-5.272074 2.077312-10.026354 5.192256-14.0766 9.253758l-0.022513-0.022513C667.677107 603.02718 654.847917 623.703081 644.532991 640.341017l0.022513 0.022513L644.532991 640.409578l-0.25378 0.36839c-9.28855 14.999622-15.865339 25.176402-23.422456 32.191166-9.195429 8.538467-18.599613 12.045337-32.249495 12.045337-49.255821 0-101.199866-51.944046-151.504576-102.249779l-0.046049-0.046049 0.022513-0.022513c-24.460088-24.460088-49.347918-49.336662-68.396763-73.980945-20.249183-26.214035-33.910321-52.289923-33.910321-77.534887 0-13.661138 3.507894-23.075555 12.045337-32.259728 6.992251-7.54586 17.180288-14.145162 32.178887-23.422456 8.492418-5.238304 18.033725-11.145851 27.887141-18.2302 9.610892-6.900154 19.810185-15.160281 30.17116-25.521257 5.757121-5.745864 11.214413-14.376429 12.368702-26.768667 0.957815-10.383488-0.945535-23.468504-7.741311-39.897685l-0.022513 0.022513c-13.960966-33.713846-45.044916-72.435753-78.562287-102.871949-32.513508-29.537733-66.3655-50.767244-87.296205-50.767244-18.068518 0-41.490973 16.476253-64.958454 38.860053-41.467437 39.575344-81.307817 96.734158-97.184413 120.54854l0.011256 0-1.14201 1.730411 0 2.145873c0 51.66673 26.491351 130.817418 65.974597 210.245422 39.71349 79.911004 92.430132 159.592788 144.559397 211.721029 52.139497 52.128241 131.809001 104.833627 211.721029 144.570653C614.221638 880.767831 693.360046 907.260206 745.027799 907.260206M751.246431 934.696068l-6.218632 0c-55.842843 0-139.424446-27.644617-222.35932-68.88181-82.461083-40.98239-164.842349-95.557356-218.989573-149.693324-54.148247-54.159504-108.733447-136.562259-149.71686-219.013109-41.224914-82.934874-68.88181-166.515455-68.88181-222.35932l0-6.229888 0-4.084015 2.307555-3.484358 3.449565-5.192256 0.057305-0.046049c16.372899-24.552186 57.655118-83.764775 101.084233-125.2097 28.072359-26.767644 57.621349-46.475498 83.824127-46.475498 27.944446 0 68.615751 24.229844 105.733113 57.94369 36.137035 32.813337 69.885674 75.135234 85.426625 112.609731l0 0.069585c8.665357 20.929682 11.018961 38.398542 9.680477 52.797483-1.86958 20.214391-10.787694 34.290991-20.190855 43.705408-11.237949 11.237949-22.672372 20.468171-33.586956 28.313859-10.683317 7.661494-20.641109 13.82282-29.490661 19.291368-13.003152 8.030907-21.679765 13.615089-26.513864 18.807345-3.287883 3.553942-4.638647 7.522324-4.638647 13.615089 0 18.322297 11.31879 39.067784 28.118408 60.804854 17.97642 23.283286 42.241057 47.536666 66.054415 71.327512l0.058328 0 0.046049 0.046049c46.348608 46.359864 94.196359 94.196359 132.109854 94.196359 6.080485 0 10.061147-1.338485 13.603833-4.637624 5.145184-4.776793 10.673084-13.337773 18.564821-26.099425l-0.022513-0.022513 0.022513-0.046049 0.265036-0.369414c11.111059-17.975397 24.957415-40.359196 47.594995-63.020312l0-0.046049c6.737448-6.738471 14.630209-11.883655 23.39892-15.369036l0.046049 0c8.641821-3.391237 18.079774-5.145184 28.025287-5.145184 39.805588 0 91.276866 31.151487 133.656069 70.5191 45.862537 42.552142 81.988316 95.880721 81.988316 130.679271 0 26.191522-19.695574 55.750745-46.474474 83.810824-41.444924 43.429115-100.68105 84.711334-125.221979 101.095489l-0.057305 0.047072-5.180999 3.437286-3.483334 2.307555L751.246431 934.696068z" p-id="2117" fill="#8a8a8a"></path></svg>